<mxfile host="65bd71144e">
    <diagram id="4xe91Qqz7dlcZh1yDSEv" name="Page-1">
        <mxGraphModel dx="766" dy="1761" grid="1" gridSize="10" guides="1" tooltips="1" connect="1" arrows="1" fold="1" page="1" pageScale="1" pageWidth="850" pageHeight="1100" math="0" shadow="0">
            <root>
                <mxCell id="0"/>
                <mxCell id="1" parent="0"/>
                <mxCell id="2" value="Liya G.&#xa;TEJ3M&#xa;6/05/25&#xa;Unit #4-11" style="text;align=left;verticalAlign=middle;resizable=0;points=[];autosize=1;strokeColor=none;fillColor=none;" parent="1" vertex="1">
                    <mxGeometry x="130" y="-524" width="80" height="70" as="geometry"/>
                </mxCell>
                <mxCell id="3" value="AND Gate with Gates&#xa;&#xa;A | B | Output&#xa;---------------&#xa;0 | 0 | 0&#xa;0 | 1 | 0&#xa;1 | 0 | 0&#xa;1 | 1 | 1" style="text;align=left;verticalAlign=middle;resizable=0;points=[];autosize=1;strokeColor=none;fillColor=none;" parent="1" vertex="1">
                    <mxGeometry x="130" y="-431" width="140" height="130" as="geometry"/>
                </mxCell>
                <mxCell id="4" value="" style="verticalLabelPosition=bottom;shadow=0;dashed=0;align=center;html=1;verticalAlign=top;shape=mxgraph.electrical.logic_gates.logic_gate;operation=and;rotation=90;" parent="1" vertex="1">
                    <mxGeometry x="260" y="-380" width="100" height="60" as="geometry"/>
                </mxCell>
                <mxCell id="5" value="" style="verticalLabelPosition=bottom;shadow=0;dashed=0;align=center;html=1;verticalAlign=top;shape=mxgraph.electrical.opto_electronics.led_2;pointerEvents=1;rotation=-180;flipH=1;flipV=1;" parent="1" vertex="1">
                    <mxGeometry x="360" y="-310" width="100" height="70" as="geometry"/>
                </mxCell>
                <mxCell id="6" value="Output" style="text;html=1;align=center;verticalAlign=middle;resizable=0;points=[];autosize=1;strokeColor=none;fillColor=none;" parent="1" vertex="1">
                    <mxGeometry x="390" y="-240" width="60" height="30" as="geometry"/>
                </mxCell>
                <mxCell id="7" value="220&amp;nbsp;Î©" style="text;html=1;align=center;verticalAlign=middle;resizable=0;points=[];autosize=1;strokeColor=none;fillColor=none;" parent="1" vertex="1">
                    <mxGeometry x="500" y="-260" width="60" height="30" as="geometry"/>
                </mxCell>
                <mxCell id="22" style="edgeStyle=orthogonalEdgeStyle;html=1;entryX=0;entryY=0.5;entryDx=0;entryDy=0;endArrow=none;endFill=0;rounded=0;" parent="1" source="8" target="9" edge="1">
                    <mxGeometry relative="1" as="geometry"/>
                </mxCell>
                <mxCell id="8" value="" style="pointerEvents=1;verticalLabelPosition=bottom;shadow=0;dashed=0;align=center;html=1;verticalAlign=top;shape=mxgraph.electrical.resistors.resistor_2;rotation=0;flipV=0;flipH=0;" parent="1" vertex="1">
                    <mxGeometry x="480" y="-280" width="100" height="20" as="geometry"/>
                </mxCell>
                <mxCell id="23" style="edgeStyle=orthogonalEdgeStyle;html=1;exitX=1;exitY=0.5;exitDx=0;exitDy=0;entryX=1;entryY=0.12;entryDx=0;entryDy=0;rounded=0;endArrow=none;endFill=0;" parent="1" source="9" target="14" edge="1">
                    <mxGeometry relative="1" as="geometry"/>
                </mxCell>
                <mxCell id="9" value="" style="pointerEvents=1;verticalLabelPosition=bottom;shadow=0;dashed=0;align=center;html=1;verticalAlign=top;shape=mxgraph.electrical.miscellaneous.batteryStack;rotation=-90;" parent="1" vertex="1">
                    <mxGeometry x="630" y="-390" width="100" height="60" as="geometry"/>
                </mxCell>
                <mxCell id="10" value="5 V" style="text;html=1;align=center;verticalAlign=middle;resizable=0;points=[];autosize=1;strokeColor=none;fillColor=none;" parent="1" vertex="1">
                    <mxGeometry x="710" y="-375" width="40" height="30" as="geometry"/>
                </mxCell>
                <mxCell id="11" value="Input A" style="text;html=1;align=center;verticalAlign=middle;resizable=0;points=[];autosize=1;strokeColor=none;fillColor=none;" parent="1" vertex="1">
                    <mxGeometry x="560" y="-504" width="60" height="30" as="geometry"/>
                </mxCell>
                <mxCell id="12" value="Input B" style="text;html=1;align=center;verticalAlign=middle;resizable=0;points=[];autosize=1;strokeColor=none;fillColor=none;" parent="1" vertex="1">
                    <mxGeometry x="540" y="-420" width="60" height="30" as="geometry"/>
                </mxCell>
                <mxCell id="24" style="edgeStyle=orthogonalEdgeStyle;html=1;exitX=1;exitY=0.12;exitDx=0;exitDy=0;endArrow=none;endFill=0;rounded=0;" parent="1" source="13" edge="1">
                    <mxGeometry relative="1" as="geometry">
                        <mxPoint x="680" y="-410" as="targetPoint"/>
                    </mxGeometry>
                </mxCell>
                <mxCell id="13" value="" style="html=1;shape=mxgraph.electrical.electro-mechanical.twoWaySwitch;aspect=fixed;elSwitchState=2;flipH=0;flipV=1;fillColor=#000000;" parent="1" vertex="1">
                    <mxGeometry x="525" y="-446" width="75" height="26" as="geometry"/>
                </mxCell>
                <mxCell id="21" style="edgeStyle=orthogonalEdgeStyle;html=1;exitX=1;exitY=0.88;exitDx=0;exitDy=0;rounded=0;endArrow=none;endFill=0;" parent="1" source="14" edge="1">
                    <mxGeometry relative="1" as="geometry">
                        <mxPoint x="600" y="-310" as="targetPoint"/>
                        <Array as="points">
                            <mxPoint x="630" y="-507"/>
                            <mxPoint x="630" y="-310"/>
                        </Array>
                    </mxGeometry>
                </mxCell>
                <mxCell id="14" value="" style="html=1;shape=mxgraph.electrical.electro-mechanical.twoWaySwitch;aspect=fixed;elSwitchState=2;flipH=0;flipV=1;fillColor=#000000;" parent="1" vertex="1">
                    <mxGeometry x="525" y="-530" width="75" height="26" as="geometry"/>
                </mxCell>
                <mxCell id="15" style="edgeStyle=orthogonalEdgeStyle;html=1;exitX=0;exitY=0.5;exitDx=0;exitDy=0;entryX=0;entryY=0.25;entryDx=0;entryDy=0;entryPerimeter=0;rounded=0;endArrow=none;endFill=0;" parent="1" source="13" target="4" edge="1">
                    <mxGeometry relative="1" as="geometry"/>
                </mxCell>
                <mxCell id="16" style="edgeStyle=orthogonalEdgeStyle;html=1;exitX=0;exitY=0.5;exitDx=0;exitDy=0;entryX=0;entryY=0.75;entryDx=0;entryDy=0;entryPerimeter=0;rounded=0;endArrow=none;endFill=0;" parent="1" source="14" target="4" edge="1">
                    <mxGeometry relative="1" as="geometry"/>
                </mxCell>
                <mxCell id="17" style="edgeStyle=orthogonalEdgeStyle;html=1;exitX=1;exitY=0.5;exitDx=0;exitDy=0;exitPerimeter=0;entryX=0;entryY=0.57;entryDx=0;entryDy=0;entryPerimeter=0;rounded=0;endArrow=none;endFill=0;" parent="1" source="4" target="5" edge="1">
                    <mxGeometry relative="1" as="geometry"/>
                </mxCell>
                <mxCell id="18" style="edgeStyle=orthogonalEdgeStyle;html=1;exitX=1;exitY=0.57;exitDx=0;exitDy=0;exitPerimeter=0;entryX=0;entryY=0.5;entryDx=0;entryDy=0;entryPerimeter=0;endArrow=none;endFill=0;rounded=0;" parent="1" source="5" target="8" edge="1">
                    <mxGeometry relative="1" as="geometry"/>
                </mxCell>
                <mxCell id="19" style="edgeStyle=orthogonalEdgeStyle;html=1;exitX=1;exitY=0.88;exitDx=0;exitDy=0;entryX=1;entryY=0.5;entryDx=0;entryDy=0;entryPerimeter=0;rounded=0;endArrow=none;endFill=0;" parent="1" source="13" target="8" edge="1">
                    <mxGeometry relative="1" as="geometry">
                        <Array as="points">
                            <mxPoint x="610" y="-423"/>
                            <mxPoint x="610" y="-340"/>
                            <mxPoint x="600" y="-340"/>
                            <mxPoint x="600" y="-270"/>
                        </Array>
                    </mxGeometry>
                </mxCell>
                <mxCell id="25" value="" style="shape=waypoint;sketch=0;size=6;pointerEvents=1;points=[];fillColor=none;resizable=0;rotatable=0;perimeter=centerPerimeter;snapToPoint=1;strokeWidth=2;" parent="1" vertex="1">
                    <mxGeometry x="590" y="-320" width="20" height="20" as="geometry"/>
                </mxCell>
                <mxCell id="26" value="" style="shape=waypoint;sketch=0;size=6;pointerEvents=1;points=[];fillColor=none;resizable=0;rotatable=0;perimeter=centerPerimeter;snapToPoint=1;strokeWidth=2;" parent="1" vertex="1">
                    <mxGeometry x="591" y="-280" width="20" height="20" as="geometry"/>
                </mxCell>
                <mxCell id="27" value="" style="shape=waypoint;sketch=0;size=6;pointerEvents=1;points=[];fillColor=none;resizable=0;rotatable=0;perimeter=centerPerimeter;snapToPoint=1;strokeWidth=2;" parent="1" vertex="1">
                    <mxGeometry x="671" y="-452" width="20" height="20" as="geometry"/>
                </mxCell>
            </root>
        </mxGraphModel>
    </diagram>
</mxfile>